<svg xmlns="http://www.w3.org/2000/svg" viewBox="0 0 64 64" fill="none">
  <!-- Circuit P Letter for Proep.az -->
  <rect width="64" height="64" fill="white"/>
  
  <!-- Main P shape - deep blue -->
  <path d="M16 8 L16 56 L24 56 L24 36 L40 36 L48 28 L48 16 L40 8 Z" 
        fill="none" stroke="#0A66C2" stroke-width="4" stroke-linecap="round" stroke-linejoin="round"/>
  
  <!-- Inner P curve -->
  <path d="M24 16 L40 16 L40 28 L24 28" 
        fill="none" stroke="#0A66C2" stroke-width="4" stroke-linecap="round" stroke-linejoin="round"/>
  
  <!-- Teal circuit accents -->
  <line x1="24" y1="22" x2="36" y2="22" stroke="#20C997" stroke-width="3" stroke-linecap="round"/>
  <line x1="32" y1="16" x2="32" y2="28" stroke="#20C997" stroke-width="3" stroke-linecap="round"/>
  
  <!-- Circuit nodes - teal -->
  <circle cx="16" cy="8" r="3" fill="#20C997"/>
  <circle cx="48" cy="16" r="3" fill="#20C997"/>
  <circle cx="48" cy="28" r="3" fill="#20C997"/>
  <circle cx="16" cy="56" r="3" fill="#20C997"/>
  <circle cx="24" cy="36" r="3" fill="#0A66C2"/>
  
  <!-- Additional circuit lines -->
  <line x1="48" y1="16" x2="56" y2="12" stroke="#20C997" stroke-width="2" stroke-linecap="round"/>
  <line x1="48" y1="28" x2="56" y2="32" stroke="#0A66C2" stroke-width="2" stroke-linecap="round"/>
  <circle cx="56" cy="12" r="2" fill="#20C997"/>
  <circle cx="56" cy="32" r="2" fill="#0A66C2"/>
</svg>
